<?xml version="1.0" standalone="no"?><!DOCTYPE svg PUBLIC "-//W3C//DTD SVG 1.1//EN" "http://www.w3.org/Graphics/SVG/1.1/DTD/svg11.dtd"><svg height="282" node-id="1" sillyvg="true" template-height="282" template-width="371" version="1.1" viewBox="0 0 371 282" width="371" xmlns="http://www.w3.org/2000/svg" xmlns:xlink="http://www.w3.org/1999/xlink"><defs node-id="52"><linearGradient gradientUnits="objectBoundingBox" id="linearGradient-1" node-id="7" spreadMethod="pad" x1="0.5" x2="0.5" y1="0" y2="1"><stop offset="0" stop-color="#59d0fc"></stop><stop offset="1" stop-color="#4b79ff"></stop></linearGradient><linearGradient gradientUnits="objectBoundingBox" id="linearGradient1" node-id="60" spreadMethod="pad" x1="0.5" x2="0.5" y1="0" y2="1"><stop offset="0" stop-color="#59d0fc"></stop><stop offset="1" stop-color="#4b79ff"></stop></linearGradient><linearGradient gradientUnits="objectBoundingBox" id="linearGradient-2" node-id="10" spreadMethod="pad" x1="0.5" x2="0.5" y1="0" y2="1"><stop offset="0" stop-color="#59d0fc"></stop><stop offset="1" stop-color="#4b79ff"></stop></linearGradient><linearGradient gradientUnits="objectBoundingBox" id="linearGradient-3" node-id="13" spreadMethod="pad" x1="0.5" x2="0.5" y1="0" y2="1"><stop offset="0" stop-color="#59d0fc"></stop><stop offset="1" stop-color="#4b79ff"></stop></linearGradient><linearGradient gradientUnits="objectBoundingBox" id="linearGradient-4" node-id="16" spreadMethod="pad" x1="0.5" x2="0.5" y1="0" y2="1"><stop offset="0" stop-color="#59d0fc"></stop><stop offset="1" stop-color="#4b79ff" stop-opacity="0"></stop></linearGradient><linearGradient gradientUnits="objectBoundingBox" id="linearGradient-5" node-id="19" spreadMethod="pad" x1="0" x2="0.5" y1="0.15387806" y2="0.61303854"><stop offset="0" stop-color="#59d0fc"></stop><stop offset="1" stop-color="#4b79ff"></stop></linearGradient><linearGradient gradientUnits="objectBoundingBox" id="linearGradient-6" node-id="22" spreadMethod="pad" x1="0.14696611" x2="0.5" y1="0.22824872" y2="0.77175134"><stop offset="0" stop-color="#59d0fc"></stop><stop offset="1" stop-color="#4b79ff"></stop></linearGradient><linearGradient gradientUnits="objectBoundingBox" id="linearGradient-7" node-id="25" spreadMethod="pad" x1="0.5" x2="0.5" y1="0" y2="1"><stop offset="0" stop-color="#59d0fc"></stop><stop offset="1" stop-color="#4b79ff"></stop></linearGradient><linearGradient gradientUnits="objectBoundingBox" id="linearGradient2" node-id="103" spreadMethod="pad" x1="0.5" x2="0.5" y1="0" y2="1"><stop offset="0" stop-color="#59d0fc"></stop><stop offset="1" stop-color="#4b79ff"></stop></linearGradient><linearGradient gradientUnits="objectBoundingBox" id="linearGradient3" node-id="110" spreadMethod="pad" x1="0.5" x2="0.5" y1="0" y2="1"><stop offset="0" stop-color="#59d0fc"></stop><stop offset="1" stop-color="#4b79ff"></stop></linearGradient><linearGradient gradientUnits="objectBoundingBox" id="linearGradient-8" node-id="28" spreadMethod="pad" x1="0.5" x2="0.5" y1="0" y2="1"><stop offset="0" stop-color="#59d0fc"></stop><stop offset="1" stop-color="#4b79ff"></stop></linearGradient></defs><g node-id="122"><g node-id="123"><path d="M 41.00 199.10 L 186.00 281.20 L 331.00 199.10 L 191.80 116.20 Z" fill="url(#linearGradient-1)" fill-opacity="0.13" fill-rule="evenodd" group-id="1,2" id="路径-36复制-2" node-id="37" stroke="none" target-height="165.00002" target-width="290" target-x="41" target-y="116.2"></path><path d="M 5.00 152.20 L 186.50 255.20 L 368.00 152.20 L 193.70 48.20 Z" fill="url(#linearGradient1)" fill-opacity="0.17" fill-rule="evenodd" group-id="1,2" id="路径-36复制" node-id="38" stroke="url(#linearGradient-2)" stroke-linecap="butt" stroke-width="2" target-height="207" target-width="363" target-x="5" target-y="48.2"></path><path d="M 1.00 120.20 L 186.00 225.20 L 371.00 120.20 L 193.40 14.20 L 1.00 120.20 Z" fill="none" group-id="1,2" id="路径-36" node-id="39" stroke="url(#linearGradient-3)" stroke-dasharray="3 3" stroke-linecap="butt" stroke-width="2" target-height="211" target-width="370" target-x="1" target-y="14.2"></path><path d="M 100.00 51.20 L 100.00 203.40 L 270.10 201.00 L 270.10 51.20 L 222.30 79.50 L 198.00 93.50 L 187.90 98.90 L 184.90 100.20 L 183.50 100.10 L 179.80 98.80 L 172.20 95.00 L 158.40 87.30 L 135.40 73.40 L 100.00 51.20 Z" fill="url(#linearGradient-4)" fill-rule="evenodd" group-id="1,2" id="路径-37复制" node-id="40" stroke="none" target-height="152.2" target-width="170.1" target-x="100" target-y="51.2"></path><g node-id="124"><path d="M 269.80 52.30 L 270.30 51.00 L 270.20 49.60 L 269.70 48.40 L 268.60 47.50 L 200.60 6.80 L 197.10 5.00 L 193.50 3.70 L 189.80 3.00 L 186.10 2.70 L 182.30 2.90 L 178.60 3.70 L 175.00 4.90 L 171.50 6.60 L 100.90 48.30 L 99.90 50.40 L 99.90 51.70 L 100.50 52.90 L 101.60 53.80 L 176.80 97.80 L 179.10 98.90 L 181.50 99.50 L 184.00 99.80 L 186.50 99.60 L 189.00 98.90 L 191.30 97.80 L 268.60 53.50 L 269.80 52.30 Z" fill="url(#linearGradient-5)" fill-rule="evenodd" group-id="1,2,3" id="矩形复制" node-id="41" stroke="url(#linearGradient-6)" stroke-linecap="butt" stroke-width="1" target-height="97.100006" target-width="170.4" target-x="99.9" target-y="2.7"></path></g><path d="M 169.90 65.00 L 162.80 60.10 L 158.40 56.60 L 156.10 54.30 L 155.00 52.80 L 154.20 50.90 L 154.00 49.20 L 154.20 47.70 L 154.90 46.30 L 156.10 45.10 L 158.00 44.00 L 159.80 43.60 L 162.30 43.60 L 167.70 44.40 L 175.60 46.00 L 176.80 45.70 L 177.80 44.90 L 178.60 43.90 L 179.50 37.80 L 181.70 33.70 L 183.60 31.60 L 186.40 29.50 L 190.50 27.60 L 194.90 27.00 L 199.20 28.00 L 203.10 30.60 L 203.90 31.80 L 204.70 33.70 L 205.00 35.90 L 204.70 38.30 L 203.20 41.40 L 201.60 43.00 L 196.40 46.40 L 194.00 47.50 L 190.20 48.70 L 186.90 49.20 L 185.30 50.40 L 185.20 52.10 L 185.70 53.60 L 188.40 58.20 L 187.80 59.40 L 186.50 60.10 L 185.90 60.00 L 185.20 59.60 L 182.50 55.20 L 181.30 54.20 L 179.50 53.30 L 177.50 53.00 L 174.00 53.30 L 171.00 54.90 L 169.90 56.00 L 169.20 57.10 L 168.90 58.80 L 169.00 61.40 L 169.90 65.00 Z" fill="#b6e8fd" fill-rule="evenodd" group-id="1,2" id="路径-37" node-id="42" stroke="none" target-height="38" target-width="51" target-x="154" target-y="27"></path><path d="M 173.00 59.40 L 174.90 66.10 L 174.70 69.30 L 177.00 71.00 L 184.40 68.20 L 190.70 66.10 L 196.20 64.80 L 201.00 64.10 L 205.00 63.90 L 201.40 63.10 L 195.30 62.60 L 187.00 63.40 L 182.10 64.60 L 181.70 60.90 L 181.10 59.60 L 180.30 58.40 L 178.80 57.30 L 177.60 57.00 L 175.30 57.40 L 174.00 58.20 L 173.00 59.40 Z" fill="#b6e8fd" fill-rule="evenodd" group-id="1,2" id="路径-38" node-id="43" stroke="none" target-height="14" target-width="32" target-x="173" target-y="57"></path><path d="M 189.00 208.00 L 213.10 222.40 L 212.30 209.30 Z" fill="url(#linearGradient-7)" fill-rule="evenodd" group-id="1,2" id="路径-39" node-id="44" stroke="none" target-height="14.399994" target-width="24.100006" target-x="189" target-y="208"></path><path d="M 324.00 5.50 L 323.80 6.70 L 322.70 8.70 L 320.70 9.80 L 319.50 10.00 L 318.30 9.80 L 316.30 8.70 L 315.20 6.70 L 315.00 5.50 L 315.20 4.30 L 316.30 2.30 L 318.30 1.20 L 319.50 1.00 L 320.70 1.20 L 322.70 2.30 L 323.80 4.30 L 324.00 5.50 Z" fill="none" group-id="1,2" id="椭圆形" node-id="45" stroke="url(#linearGradient2)" stroke-linecap="butt" stroke-width="1" target-height="9" target-width="9" target-x="315" target-y="1"></path><path d="M 22.00 197.50 L 21.80 198.70 L 20.70 200.70 L 18.70 201.80 L 17.50 202.00 L 15.20 201.40 L 13.60 199.80 L 13.20 198.70 L 13.00 197.50 L 13.60 195.20 L 15.20 193.60 L 17.50 193.00 L 18.70 193.20 L 20.70 194.30 L 21.80 196.30 L 22.00 197.50 Z" fill="none" group-id="1,2" id="椭圆形复制" node-id="46" stroke="url(#linearGradient3)" stroke-linecap="butt" stroke-width="1" target-height="9" target-width="9" target-x="13" target-y="193"></path><path d="M 76.00 45.50 L 75.80 46.70 L 74.70 48.70 L 72.70 49.80 L 71.50 50.00 L 69.20 49.40 L 67.60 47.80 L 67.20 46.70 L 67.00 45.50 L 67.60 43.20 L 69.20 41.60 L 71.50 41.00 L 72.70 41.20 L 74.70 42.30 L 75.80 44.30 L 76.00 45.50 Z" fill="none" group-id="1,2" id="椭圆形复制-2" node-id="47" stroke="url(#linearGradient-8)" stroke-linecap="butt" stroke-width="1" target-height="9" target-width="9" target-x="67" target-y="41"></path><path d="M 319.50 10.00 L 319.50 60.10" fill="none" group-id="1,2" id="直线" node-id="48" stroke="none" target-height="50.1" target-width="0" target-x="319.5" target-y="10"></path><path d="M 17.50 202.00 L 17.50 252.10" fill="none" group-id="1,2" id="直线复制" node-id="49" stroke="none" target-height="50.100006" target-width="0" target-x="17.5" target-y="202"></path><path d="M 71.50 50.00 L 71.50 100.10" fill="none" group-id="1,2" id="直线复制-2" node-id="50" stroke="none" target-height="50.1" target-width="0" target-x="71.5" target-y="50"></path></g></g></svg>